<svg width="224" height="93" viewBox="0 0 224 93" fill="none" xmlns="http://www.w3.org/2000/svg">
<rect width="224" height="93" fill="url(#paint0_linear_10_5)"/>
<path d="M103.242 54.5L105.414 47.5469H106.367L106.18 48.9297L103.969 56H103.039L103.242 54.5ZM101.781 47.5469L103.633 54.5781L103.766 56H102.789L100.336 47.5469H101.781ZM108.445 54.5234L110.211 47.5469H111.648L109.195 56H108.227L108.445 54.5234ZM106.578 47.5469L108.703 54.3828L108.945 56H108.023L105.75 48.9141L105.562 47.5469H106.578ZM116.641 56.1562C116.052 56.1562 115.518 56.0573 115.039 55.8594C114.565 55.6562 114.156 55.3724 113.812 55.0078C113.474 54.6432 113.214 54.2109 113.031 53.7109C112.849 53.2109 112.758 52.6641 112.758 52.0703V51.7422C112.758 51.0547 112.859 50.4427 113.062 49.9062C113.266 49.3646 113.542 48.9062 113.891 48.5312C114.24 48.1562 114.635 47.8724 115.078 47.6797C115.521 47.487 115.979 47.3906 116.453 47.3906C117.057 47.3906 117.578 47.4948 118.016 47.7031C118.458 47.9115 118.82 48.2031 119.102 48.5781C119.383 48.9479 119.591 49.3854 119.727 49.8906C119.862 50.3906 119.93 50.9375 119.93 51.5312V52.1797H113.617V51H118.484V50.8906C118.464 50.5156 118.385 50.151 118.25 49.7969C118.12 49.4427 117.911 49.151 117.625 48.9219C117.339 48.6927 116.948 48.5781 116.453 48.5781C116.125 48.5781 115.823 48.6484 115.547 48.7891C115.271 48.9245 115.034 49.1276 114.836 49.3984C114.638 49.6693 114.484 50 114.375 50.3906C114.266 50.7812 114.211 51.2318 114.211 51.7422V52.0703C114.211 52.4714 114.266 52.849 114.375 53.2031C114.49 53.5521 114.654 53.8594 114.867 54.125C115.086 54.3906 115.349 54.599 115.656 54.75C115.969 54.901 116.323 54.9766 116.719 54.9766C117.229 54.9766 117.661 54.8724 118.016 54.6641C118.37 54.4557 118.68 54.1771 118.945 53.8281L119.82 54.5234C119.638 54.7995 119.406 55.0625 119.125 55.3125C118.844 55.5625 118.497 55.7656 118.086 55.9219C117.68 56.0781 117.198 56.1562 116.641 56.1562ZM121.609 44H123.062V54.3594L122.938 56H121.609V44ZM128.773 51.7031V51.8672C128.773 52.4818 128.701 53.0521 128.555 53.5781C128.409 54.099 128.195 54.5521 127.914 54.9375C127.633 55.3229 127.289 55.6224 126.883 55.8359C126.477 56.0495 126.01 56.1562 125.484 56.1562C124.948 56.1562 124.477 56.0651 124.07 55.8828C123.669 55.6953 123.331 55.4271 123.055 55.0781C122.779 54.7292 122.557 54.3073 122.391 53.8125C122.229 53.3177 122.117 52.7604 122.055 52.1406V51.4219C122.117 50.7969 122.229 50.237 122.391 49.7422C122.557 49.2474 122.779 48.8255 123.055 48.4766C123.331 48.1224 123.669 47.8542 124.07 47.6719C124.471 47.4844 124.938 47.3906 125.469 47.3906C126 47.3906 126.471 47.4948 126.883 47.7031C127.294 47.9062 127.638 48.1979 127.914 48.5781C128.195 48.9583 128.409 49.4141 128.555 49.9453C128.701 50.4714 128.773 51.0573 128.773 51.7031ZM127.32 51.8672V51.7031C127.32 51.2812 127.281 50.8854 127.203 50.5156C127.125 50.1406 127 49.8125 126.828 49.5312C126.656 49.2448 126.43 49.0208 126.148 48.8594C125.867 48.6927 125.521 48.6094 125.109 48.6094C124.745 48.6094 124.427 48.6719 124.156 48.7969C123.891 48.9219 123.664 49.0911 123.477 49.3047C123.289 49.513 123.135 49.7526 123.016 50.0234C122.901 50.2891 122.815 50.5651 122.758 50.8516V52.7344C122.841 53.099 122.977 53.4505 123.164 53.7891C123.357 54.1224 123.612 54.3958 123.93 54.6094C124.253 54.8229 124.651 54.9297 125.125 54.9297C125.516 54.9297 125.849 54.8516 126.125 54.6953C126.406 54.5339 126.633 54.3125 126.805 54.0312C126.982 53.75 127.112 53.4245 127.195 53.0547C127.279 52.6849 127.32 52.2891 127.32 51.8672ZM139.898 54.3594V44H141.352V56H140.023L139.898 54.3594ZM134.211 51.8672V51.7031C134.211 51.0573 134.289 50.4714 134.445 49.9453C134.607 49.4141 134.833 48.9583 135.125 48.5781C135.422 48.1979 135.773 47.9062 136.18 47.7031C136.591 47.4948 137.049 47.3906 137.555 47.3906C138.086 47.3906 138.549 47.4844 138.945 47.6719C139.346 47.8542 139.685 48.1224 139.961 48.4766C140.242 48.8255 140.464 49.2474 140.625 49.7422C140.786 50.237 140.898 50.7969 140.961 51.4219V52.1406C140.904 52.7604 140.792 53.3177 140.625 53.8125C140.464 54.3073 140.242 54.7292 139.961 55.0781C139.685 55.4271 139.346 55.6953 138.945 55.8828C138.544 56.0651 138.076 56.1562 137.539 56.1562C137.044 56.1562 136.591 56.0495 136.18 55.8359C135.773 55.6224 135.422 55.3229 135.125 54.9375C134.833 54.5521 134.607 54.099 134.445 53.5781C134.289 53.0521 134.211 52.4818 134.211 51.8672ZM135.664 51.7031V51.8672C135.664 52.2891 135.706 52.6849 135.789 53.0547C135.878 53.4245 136.013 53.75 136.195 54.0312C136.378 54.3125 136.609 54.5339 136.891 54.6953C137.172 54.8516 137.508 54.9297 137.898 54.9297C138.378 54.9297 138.771 54.8281 139.078 54.625C139.391 54.4219 139.641 54.1536 139.828 53.8203C140.016 53.487 140.161 53.125 140.266 52.7344V50.8516C140.203 50.5651 140.112 50.2891 139.992 50.0234C139.878 49.7526 139.727 49.513 139.539 49.3047C139.357 49.0911 139.13 48.9219 138.859 48.7969C138.594 48.6719 138.279 48.6094 137.914 48.6094C137.518 48.6094 137.177 48.6927 136.891 48.8594C136.609 49.0208 136.378 49.2448 136.195 49.5312C136.013 49.8125 135.878 50.1406 135.789 50.5156C135.706 50.8854 135.664 51.2812 135.664 51.7031ZM147.109 56.1562C146.521 56.1562 145.987 56.0573 145.508 55.8594C145.034 55.6562 144.625 55.3724 144.281 55.0078C143.943 54.6432 143.682 54.2109 143.5 53.7109C143.318 53.2109 143.227 52.6641 143.227 52.0703V51.7422C143.227 51.0547 143.328 50.4427 143.531 49.9062C143.734 49.3646 144.01 48.9062 144.359 48.5312C144.708 48.1562 145.104 47.8724 145.547 47.6797C145.99 47.487 146.448 47.3906 146.922 47.3906C147.526 47.3906 148.047 47.4948 148.484 47.7031C148.927 47.9115 149.289 48.2031 149.57 48.5781C149.852 48.9479 150.06 49.3854 150.195 49.8906C150.331 50.3906 150.398 50.9375 150.398 51.5312V52.1797H144.086V51H148.953V50.8906C148.932 50.5156 148.854 50.151 148.719 49.7969C148.589 49.4427 148.38 49.151 148.094 48.9219C147.807 48.6927 147.417 48.5781 146.922 48.5781C146.594 48.5781 146.292 48.6484 146.016 48.7891C145.74 48.9245 145.503 49.1276 145.305 49.3984C145.107 49.6693 144.953 50 144.844 50.3906C144.734 50.7812 144.68 51.2318 144.68 51.7422V52.0703C144.68 52.4714 144.734 52.849 144.844 53.2031C144.958 53.5521 145.122 53.8594 145.336 54.125C145.555 54.3906 145.818 54.599 146.125 54.75C146.438 54.901 146.792 54.9766 147.188 54.9766C147.698 54.9766 148.13 54.8724 148.484 54.6641C148.839 54.4557 149.148 54.1771 149.414 53.8281L150.289 54.5234C150.107 54.7995 149.875 55.0625 149.594 55.3125C149.312 55.5625 148.966 55.7656 148.555 55.9219C148.148 56.0781 147.667 56.1562 147.109 56.1562ZM154.547 54.6953L156.859 47.5469H158.336L155.297 56H154.328L154.547 54.6953ZM152.617 47.5469L155 54.7344L155.164 56H154.195L151.133 47.5469H152.617ZM163.125 56.1562C162.536 56.1562 162.003 56.0573 161.523 55.8594C161.049 55.6562 160.641 55.3724 160.297 55.0078C159.958 54.6432 159.698 54.2109 159.516 53.7109C159.333 53.2109 159.242 52.6641 159.242 52.0703V51.7422C159.242 51.0547 159.344 50.4427 159.547 49.9062C159.75 49.3646 160.026 48.9062 160.375 48.5312C160.724 48.1562 161.12 47.8724 161.562 47.6797C162.005 47.487 162.464 47.3906 162.938 47.3906C163.542 47.3906 164.062 47.4948 164.5 47.7031C164.943 47.9115 165.305 48.2031 165.586 48.5781C165.867 48.9479 166.076 49.3854 166.211 49.8906C166.346 50.3906 166.414 50.9375 166.414 51.5312V52.1797H160.102V51H164.969V50.8906C164.948 50.5156 164.87 50.151 164.734 49.7969C164.604 49.4427 164.396 49.151 164.109 48.9219C163.823 48.6927 163.432 48.5781 162.938 48.5781C162.609 48.5781 162.307 48.6484 162.031 48.7891C161.755 48.9245 161.518 49.1276 161.32 49.3984C161.122 49.6693 160.969 50 160.859 50.3906C160.75 50.7812 160.695 51.2318 160.695 51.7422V52.0703C160.695 52.4714 160.75 52.849 160.859 53.2031C160.974 53.5521 161.138 53.8594 161.352 54.125C161.57 54.3906 161.833 54.599 162.141 54.75C162.453 54.901 162.807 54.9766 163.203 54.9766C163.714 54.9766 164.146 54.8724 164.5 54.6641C164.854 54.4557 165.164 54.1771 165.43 53.8281L166.305 54.5234C166.122 54.7995 165.891 55.0625 165.609 55.3125C165.328 55.5625 164.982 55.7656 164.57 55.9219C164.164 56.0781 163.682 56.1562 163.125 56.1562ZM169.672 44V56H168.219V44H169.672ZM171.609 51.8672V51.6875C171.609 51.0781 171.698 50.513 171.875 49.9922C172.052 49.4661 172.307 49.0104 172.641 48.625C172.974 48.2344 173.378 47.9323 173.852 47.7188C174.326 47.5 174.857 47.3906 175.445 47.3906C176.039 47.3906 176.573 47.5 177.047 47.7188C177.526 47.9323 177.932 48.2344 178.266 48.625C178.604 49.0104 178.862 49.4661 179.039 49.9922C179.216 50.513 179.305 51.0781 179.305 51.6875V51.8672C179.305 52.4766 179.216 53.0417 179.039 53.5625C178.862 54.0833 178.604 54.5391 178.266 54.9297C177.932 55.3151 177.529 55.6172 177.055 55.8359C176.586 56.0495 176.055 56.1562 175.461 56.1562C174.867 56.1562 174.333 56.0495 173.859 55.8359C173.385 55.6172 172.979 55.3151 172.641 54.9297C172.307 54.5391 172.052 54.0833 171.875 53.5625C171.698 53.0417 171.609 52.4766 171.609 51.8672ZM173.055 51.6875V51.8672C173.055 52.2891 173.104 52.6875 173.203 53.0625C173.302 53.4323 173.451 53.7604 173.648 54.0469C173.852 54.3333 174.104 54.5599 174.406 54.7266C174.708 54.888 175.06 54.9688 175.461 54.9688C175.857 54.9688 176.203 54.888 176.5 54.7266C176.802 54.5599 177.052 54.3333 177.25 54.0469C177.448 53.7604 177.596 53.4323 177.695 53.0625C177.799 52.6875 177.852 52.2891 177.852 51.8672V51.6875C177.852 51.2708 177.799 50.8776 177.695 50.5078C177.596 50.1328 177.445 49.8021 177.242 49.5156C177.044 49.224 176.794 48.9948 176.492 48.8281C176.195 48.6615 175.846 48.5781 175.445 48.5781C175.049 48.5781 174.701 48.6615 174.398 48.8281C174.102 48.9948 173.852 49.224 173.648 49.5156C173.451 49.8021 173.302 50.1328 173.203 50.5078C173.104 50.8776 173.055 51.2708 173.055 51.6875ZM182.562 49.1719V59.25H181.109V47.5469H182.438L182.562 49.1719ZM188.258 51.7031V51.8672C188.258 52.4818 188.185 53.0521 188.039 53.5781C187.893 54.099 187.68 54.5521 187.398 54.9375C187.122 55.3229 186.781 55.6224 186.375 55.8359C185.969 56.0495 185.503 56.1562 184.977 56.1562C184.44 56.1562 183.966 56.0677 183.555 55.8906C183.143 55.7135 182.794 55.4557 182.508 55.1172C182.221 54.7786 181.992 54.3724 181.82 53.8984C181.654 53.4245 181.539 52.8906 181.477 52.2969V51.4219C181.539 50.7969 181.656 50.237 181.828 49.7422C182 49.2474 182.227 48.8255 182.508 48.4766C182.794 48.1224 183.141 47.8542 183.547 47.6719C183.953 47.4844 184.422 47.3906 184.953 47.3906C185.484 47.3906 185.956 47.4948 186.367 47.7031C186.779 47.9062 187.125 48.1979 187.406 48.5781C187.688 48.9583 187.898 49.4141 188.039 49.9453C188.185 50.4714 188.258 51.0573 188.258 51.7031ZM186.805 51.8672V51.7031C186.805 51.2812 186.76 50.8854 186.672 50.5156C186.583 50.1406 186.445 49.8125 186.258 49.5312C186.076 49.2448 185.841 49.0208 185.555 48.8594C185.268 48.6927 184.927 48.6094 184.531 48.6094C184.167 48.6094 183.849 48.6719 183.578 48.7969C183.312 48.9219 183.086 49.0911 182.898 49.3047C182.711 49.513 182.557 49.7526 182.438 50.0234C182.323 50.2891 182.237 50.5651 182.18 50.8516V52.875C182.284 53.2396 182.43 53.5833 182.617 53.9062C182.805 54.224 183.055 54.4818 183.367 54.6797C183.68 54.8724 184.073 54.9688 184.547 54.9688C184.938 54.9688 185.273 54.888 185.555 54.7266C185.841 54.5599 186.076 54.3333 186.258 54.0469C186.445 53.7604 186.583 53.4323 186.672 53.0625C186.76 52.6875 186.805 52.2891 186.805 51.8672ZM193.609 56.1562C193.021 56.1562 192.487 56.0573 192.008 55.8594C191.534 55.6562 191.125 55.3724 190.781 55.0078C190.443 54.6432 190.182 54.2109 190 53.7109C189.818 53.2109 189.727 52.6641 189.727 52.0703V51.7422C189.727 51.0547 189.828 50.4427 190.031 49.9062C190.234 49.3646 190.51 48.9062 190.859 48.5312C191.208 48.1562 191.604 47.8724 192.047 47.6797C192.49 47.487 192.948 47.3906 193.422 47.3906C194.026 47.3906 194.547 47.4948 194.984 47.7031C195.427 47.9115 195.789 48.2031 196.07 48.5781C196.352 48.9479 196.56 49.3854 196.695 49.8906C196.831 50.3906 196.898 50.9375 196.898 51.5312V52.1797H190.586V51H195.453V50.8906C195.432 50.5156 195.354 50.151 195.219 49.7969C195.089 49.4427 194.88 49.151 194.594 48.9219C194.307 48.6927 193.917 48.5781 193.422 48.5781C193.094 48.5781 192.792 48.6484 192.516 48.7891C192.24 48.9245 192.003 49.1276 191.805 49.3984C191.607 49.6693 191.453 50 191.344 50.3906C191.234 50.7812 191.18 51.2318 191.18 51.7422V52.0703C191.18 52.4714 191.234 52.849 191.344 53.2031C191.458 53.5521 191.622 53.8594 191.836 54.125C192.055 54.3906 192.318 54.599 192.625 54.75C192.938 54.901 193.292 54.9766 193.688 54.9766C194.198 54.9766 194.63 54.8724 194.984 54.6641C195.339 54.4557 195.648 54.1771 195.914 53.8281L196.789 54.5234C196.607 54.7995 196.375 55.0625 196.094 55.3125C195.812 55.5625 195.466 55.7656 195.055 55.9219C194.648 56.0781 194.167 56.1562 193.609 56.1562ZM200.031 48.875V56H198.586V47.5469H199.992L200.031 48.875ZM202.672 47.5L202.664 48.8438C202.544 48.8177 202.43 48.8021 202.32 48.7969C202.216 48.7865 202.096 48.7812 201.961 48.7812C201.628 48.7812 201.333 48.8333 201.078 48.9375C200.823 49.0417 200.607 49.1875 200.43 49.375C200.253 49.5625 200.112 49.7865 200.008 50.0469C199.909 50.3021 199.844 50.5833 199.812 50.8906L199.406 51.125C199.406 50.6146 199.456 50.1354 199.555 49.6875C199.659 49.2396 199.818 48.8438 200.031 48.5C200.245 48.151 200.516 47.8802 200.844 47.6875C201.177 47.4896 201.573 47.3906 202.031 47.3906C202.135 47.3906 202.255 47.4036 202.391 47.4297C202.526 47.4505 202.62 47.474 202.672 47.5Z" fill="#30CE8A"/>
<path d="M39.928 39.08C39.128 39.08 38.408 38.8987 37.768 38.536C37.1387 38.1733 36.6427 37.672 36.28 37.032C35.9173 36.3813 35.736 35.6347 35.736 34.792C35.736 33.9387 35.9173 33.192 36.28 32.552C36.6427 31.912 37.1387 31.416 37.768 31.064C38.408 30.7013 39.128 30.52 39.928 30.52C40.664 30.52 41.32 30.6853 41.896 31.016C42.4827 31.3467 42.9467 31.832 43.288 32.472C43.64 33.1013 43.816 33.8747 43.816 34.792C43.816 35.6987 43.6453 36.472 43.304 37.112C42.9627 37.752 42.4987 38.2427 41.912 38.584C41.336 38.9147 40.6747 39.08 39.928 39.08ZM40.008 38.072C40.6053 38.072 41.1387 37.9387 41.608 37.672C42.088 37.3947 42.4613 37.0107 42.728 36.52C43.0053 36.0187 43.144 35.4427 43.144 34.792C43.144 34.1307 43.0053 33.5547 42.728 33.064C42.4613 32.5733 42.088 32.1947 41.608 31.928C41.1387 31.6507 40.6053 31.512 40.008 31.512C39.4213 31.512 38.8933 31.6507 38.424 31.928C37.9547 32.1947 37.5813 32.5733 37.304 33.064C37.0267 33.5547 36.888 34.1307 36.888 34.792C36.888 35.4427 37.0267 36.0187 37.304 36.52C37.5813 37.0107 37.9547 37.3947 38.424 37.672C38.8933 37.9387 39.4213 38.072 40.008 38.072ZM43.176 39V36.472L43.288 34.776L43.128 33.08V27.128H44.264V39H43.176ZM52.6918 39V37.144L52.6438 36.84V33.736C52.6438 33.0213 52.4411 32.472 52.0358 32.088C51.6411 31.704 51.0491 31.512 50.2598 31.512C49.7158 31.512 49.1984 31.6027 48.7078 31.784C48.2171 31.9653 47.8011 32.2053 47.4598 32.504L46.9478 31.656C47.3744 31.2933 47.8864 31.016 48.4838 30.824C49.0811 30.6213 49.7104 30.52 50.3718 30.52C51.4598 30.52 52.2971 30.792 52.8838 31.336C53.4811 31.8693 53.7798 32.6853 53.7798 33.784V39H52.6918ZM49.7958 39.08C49.1664 39.08 48.6171 38.9787 48.1478 38.776C47.6891 38.5627 47.3371 38.2747 47.0918 37.912C46.8464 37.5387 46.7238 37.112 46.7238 36.632C46.7238 36.1947 46.8251 35.8 47.0278 35.448C47.2411 35.0853 47.5824 34.7973 48.0518 34.584C48.5318 34.36 49.1718 34.248 49.9718 34.248H52.8678V35.096H50.0038C49.1931 35.096 48.6278 35.24 48.3078 35.528C47.9984 35.816 47.8438 36.1733 47.8438 36.6C47.8438 37.08 48.0304 37.464 48.4038 37.752C48.7771 38.04 49.2998 38.184 49.9718 38.184C50.6118 38.184 51.1611 38.04 51.6198 37.752C52.0891 37.4533 52.4304 37.0267 52.6438 36.472L52.8998 37.256C52.6864 37.8107 52.3131 38.2533 51.7798 38.584C51.2571 38.9147 50.5958 39.08 49.7958 39.08ZM58.869 39L55.141 30.6H56.325L59.749 38.392H59.189L62.661 30.6H63.781L60.037 39H58.869ZM65.3809 39V30.6H66.5169V39H65.3809ZM65.9569 28.744C65.7222 28.744 65.5249 28.664 65.3649 28.504C65.2049 28.344 65.1249 28.152 65.1249 27.928C65.1249 27.704 65.2049 27.5173 65.3649 27.368C65.5249 27.208 65.7222 27.128 65.9569 27.128C66.1915 27.128 66.3889 27.2027 66.5489 27.352C66.7089 27.5013 66.7889 27.688 66.7889 27.912C66.7889 28.1467 66.7089 28.344 66.5489 28.504C66.3995 28.664 66.2022 28.744 65.9569 28.744ZM78.2013 39.08C77.4759 39.08 76.8199 38.9147 76.2333 38.584C75.6466 38.2427 75.1773 37.7573 74.8253 37.128C74.4839 36.488 74.3133 35.7093 74.3133 34.792C74.3133 33.8747 74.4839 33.1013 74.8253 32.472C75.1666 31.832 75.6306 31.3467 76.2173 31.016C76.8039 30.6853 77.4653 30.52 78.2013 30.52C79.0013 30.52 79.7159 30.7013 80.3453 31.064C80.9853 31.416 81.4866 31.9173 81.8493 32.568C82.2119 33.208 82.3933 33.9493 82.3933 34.792C82.3933 35.6453 82.2119 36.392 81.8493 37.032C81.4866 37.672 80.9853 38.1733 80.3453 38.536C79.7159 38.8987 79.0013 39.08 78.2013 39.08ZM73.8653 42.104V30.6H74.9533V33.128L74.8413 34.808L75.0013 36.504V42.104H73.8653ZM78.1213 38.072C78.7186 38.072 79.2519 37.9387 79.7213 37.672C80.1906 37.3947 80.5639 37.0107 80.8413 36.52C81.1186 36.0187 81.2573 35.4427 81.2573 34.792C81.2573 34.1413 81.1186 33.5707 80.8413 33.08C80.5639 32.5893 80.1906 32.2053 79.7213 31.928C79.2519 31.6507 78.7186 31.512 78.1213 31.512C77.5239 31.512 76.9853 31.6507 76.5052 31.928C76.0359 32.2053 75.6626 32.5893 75.3853 33.08C75.1186 33.5707 74.9853 34.1413 74.9853 34.792C74.9853 35.4427 75.1186 36.0187 75.3853 36.52C75.6626 37.0107 76.0359 37.3947 76.5052 37.672C76.9853 37.9387 77.5239 38.072 78.1213 38.072ZM88.277 39.08C87.4023 39.08 86.6343 38.8987 85.973 38.536C85.3117 38.1627 84.7943 37.656 84.421 37.016C84.0477 36.3653 83.861 35.624 83.861 34.792C83.861 33.96 84.037 33.224 84.389 32.584C84.7517 31.944 85.2423 31.4427 85.861 31.08C86.4903 30.7067 87.1943 30.52 87.973 30.52C88.7623 30.52 89.461 30.7013 90.069 31.064C90.6877 31.416 91.173 31.9173 91.525 32.568C91.877 33.208 92.053 33.9493 92.053 34.792C92.053 34.8453 92.0477 34.904 92.037 34.968C92.037 35.0213 92.037 35.08 92.037 35.144H84.725V34.296H91.429L90.981 34.632C90.981 34.024 90.8477 33.4853 90.581 33.016C90.325 32.536 89.973 32.1627 89.525 31.896C89.077 31.6293 88.5597 31.496 87.973 31.496C87.397 31.496 86.8797 31.6293 86.421 31.896C85.9623 32.1627 85.605 32.536 85.349 33.016C85.093 33.496 84.965 34.0453 84.965 34.664V34.84C84.965 35.48 85.1037 36.0453 85.381 36.536C85.669 37.016 86.0637 37.3947 86.565 37.672C87.077 37.9387 87.6583 38.072 88.309 38.072C88.821 38.072 89.2957 37.9813 89.733 37.8C90.181 37.6187 90.565 37.3413 90.885 36.968L91.525 37.704C91.1517 38.152 90.6823 38.4933 90.117 38.728C89.5623 38.9627 88.949 39.08 88.277 39.08ZM94.3653 39V30.6H95.4533V32.888L95.3413 32.488C95.5759 31.848 95.9706 31.3627 96.5253 31.032C97.0799 30.6907 97.7679 30.52 98.5893 30.52V31.624C98.5466 31.624 98.5039 31.624 98.4613 31.624C98.4186 31.6133 98.3759 31.608 98.3333 31.608C97.4479 31.608 96.7546 31.88 96.2533 32.424C95.7519 32.9573 95.5013 33.72 95.5013 34.712V39H94.3653ZM104.152 39.08C103.277 39.08 102.509 38.8987 101.848 38.536C101.187 38.1627 100.669 37.656 100.296 37.016C99.9227 36.3653 99.736 35.624 99.736 34.792C99.736 33.96 99.912 33.224 100.264 32.584C100.627 31.944 101.117 31.4427 101.736 31.08C102.365 30.7067 103.069 30.52 103.848 30.52C104.637 30.52 105.336 30.7013 105.944 31.064C106.563 31.416 107.048 31.9173 107.4 32.568C107.752 33.208 107.928 33.9493 107.928 34.792C107.928 34.8453 107.923 34.904 107.912 34.968C107.912 35.0213 107.912 35.08 107.912 35.144H100.6V34.296H107.304L106.856 34.632C106.856 34.024 106.723 33.4853 106.456 33.016C106.2 32.536 105.848 32.1627 105.4 31.896C104.952 31.6293 104.435 31.496 103.848 31.496C103.272 31.496 102.755 31.6293 102.296 31.896C101.837 32.1627 101.48 32.536 101.224 33.016C100.968 33.496 100.84 34.0453 100.84 34.664V34.84C100.84 35.48 100.979 36.0453 101.256 36.536C101.544 37.016 101.939 37.3947 102.44 37.672C102.952 37.9387 103.533 38.072 104.184 38.072C104.696 38.072 105.171 37.9813 105.608 37.8C106.056 37.6187 106.44 37.3413 106.76 36.968L107.4 37.704C107.027 38.152 106.557 38.4933 105.992 38.728C105.437 38.9627 104.824 39.08 104.152 39.08ZM110.24 39V30.6H111.376V39H110.24ZM110.816 28.744C110.582 28.744 110.384 28.664 110.224 28.504C110.064 28.344 109.984 28.152 109.984 27.928C109.984 27.704 110.064 27.5173 110.224 27.368C110.384 27.208 110.582 27.128 110.816 27.128C111.051 27.128 111.248 27.2027 111.408 27.352C111.568 27.5013 111.648 27.688 111.648 27.912C111.648 28.1467 111.568 28.344 111.408 28.504C111.259 28.664 111.062 28.744 110.816 28.744ZM114.537 39V30.6H115.625V32.888L115.513 32.488C115.748 31.848 116.142 31.3627 116.697 31.032C117.252 30.6907 117.94 30.52 118.761 30.52V31.624C118.718 31.624 118.676 31.624 118.633 31.624C118.59 31.6133 118.548 31.608 118.505 31.608C117.62 31.608 116.926 31.88 116.425 32.424C115.924 32.9573 115.673 33.72 115.673 34.712V39H114.537ZM125.473 39V37.144L125.425 36.84V33.736C125.425 33.0213 125.222 32.472 124.817 32.088C124.422 31.704 123.83 31.512 123.041 31.512C122.497 31.512 121.98 31.6027 121.489 31.784C120.998 31.9653 120.582 32.2053 120.241 32.504L119.729 31.656C120.156 31.2933 120.668 31.016 121.265 30.824C121.862 30.6213 122.492 30.52 123.153 30.52C124.241 30.52 125.078 30.792 125.665 31.336C126.262 31.8693 126.561 32.6853 126.561 33.784V39H125.473ZM122.577 39.08C121.948 39.08 121.398 38.9787 120.929 38.776C120.47 38.5627 120.118 38.2747 119.873 37.912C119.628 37.5387 119.505 37.112 119.505 36.632C119.505 36.1947 119.606 35.8 119.809 35.448C120.022 35.0853 120.364 34.7973 120.833 34.584C121.313 34.36 121.953 34.248 122.753 34.248H125.649V35.096H122.785C121.974 35.096 121.409 35.24 121.089 35.528C120.78 35.816 120.625 36.1733 120.625 36.6C120.625 37.08 120.812 37.464 121.185 37.752C121.558 38.04 122.081 38.184 122.753 38.184C123.393 38.184 123.942 38.04 124.401 37.752C124.87 37.4533 125.212 37.0267 125.425 36.472L125.681 37.256C125.468 37.8107 125.094 38.2533 124.561 38.584C124.038 38.9147 123.377 39.08 122.577 39.08Z" fill="white"/>
<defs>
<linearGradient id="paint0_linear_10_5" x1="112" y1="0" x2="112" y2="93" gradientUnits="userSpaceOnUse">
<stop offset="0.4168"/>
<stop offset="1" stop-color="#00171F"/>
</linearGradient>
</defs>
</svg>
